<svg width="601" height="121" viewBox="0 0 601 121" xmlns="http://www.w3.org/2000/svg"><title>subway-logo</title><g fill-rule="nonzero" fill="none"><path d="M70.3274 14.3443c-20.7239-.103-21.9208.0337-28.7888 3.3402-1.5468.745-3.354 1.7435-4.0172 2.2164-1.9847 1.4168-5.6232 5.0039-5.6232 5.544 0 .2761-.1084.5009-.2403.5009-.6363 0-3.5 5.3899-3.505 6.5958-.002.4506-.1076.9334-.234 1.0737-.8452.9375-1.1121 9.1085-.412 12.6126.2361 1.1818.536 2.691.6679 3.3559.2505 1.2625 1.3419 3.545 2.5904 5.4251.4027.6063.8522 1.2944.9987 1.5308.6628 1.0693 5.0978 5.173 6.9724 6.4487 2.6126 1.778 5.7847 3.7104 6.5978 4.0227.3428.1316 1.708.8297 3.0335 1.5495 1.3257.7198 2.9513 1.5347 3.6141 1.8126.6628.278 2.894 1.3182 4.9563 2.3103 11.0225 5.3031 11.9682 5.8497 12.9054 7.4536.9646 1.6509.994 3.376.0811 4.7207-.3682.5425-.8714.985-1.1204.9861-.2491.001-.5404.1446-.646.3162-.1983.3198-22.9212.1716-34.1851-.2223l-5.0218-.1753V79.896c0-5.0363-.0578-5.8696-.4026-5.8696-.221 0-.3995.1215-.3995.2692s-.1376.2692-.3058.2692c-.3324 0-3.175 2.3233-3.5237 2.88-.1178.1882-.58.5321-1.0268.764-.4469.2317-1.4988 1.0543-2.3344 1.825-.8358.7706-2.0796 1.7871-2.7653 2.2603-.6856.4731-1.2861.9552-1.3358 1.0706-.1355.3149-2.7709 2.4824-3.018 2.4824-.118 0-.5932.4012-1.055.8922-.4632.4936-2.1067 1.912-3.653 3.1575-1.5464 1.2453-3.0496 2.5067-3.3426 2.8016-.2931.295-.976.8383-1.5168 1.2085-.541.3687-1.6627 1.3191-2.4938 2.1093l-1.5105 1.441L1.956 99.031c.9283.8666 1.7737 1.5799 1.8788 1.584.1052.004 1.129.8535 2.2752 1.8876 1.1464 1.0338 2.227 1.8816 2.4033 1.8816.1762 0 .4786.21.671.4696.1925.2597 1.0117 1.0174 1.8196 1.681.8079.6637 1.71 1.4032 2.0069 1.6466.2968.2434 1.3118 1.0907 2.2534 1.8813.9417.7907 2.2266 1.8254 2.8557 2.2978.6291.4723 1.5594 1.276 2.0692 1.7874.5099.5114 1.3956 1.235 1.9663 1.606.5707.3708 1.7598 1.3441 2.6435 2.1663.8837.8222 1.7496 1.4971 1.9225 1.4995.173.0024.5937.3601.9363.7952 1.2101 1.5364 1.2772 1.2749 1.3545-5.2905l.0718-6.1107 1.2047.0345c.6628.0176 7.6213.0556 15.4646.0876 9.9292.0405 14.2598.147 14.2598.3475 0 .3287 8.3354.105 12.587-.338 3.3353-.3476 7.5352-1.1738 8.1677-1.606.1473-.1007.992-.4666 1.8757-.814.8837-.3474 1.668-.7055 1.7414-.7951.2591-.3154 2.1763-1.3493 2.503-1.3493.1819 0 .7507-.39 1.264-.8702.5134-.4802 1.3935-1.2379 1.957-1.681 1.1606-.913 4.0682-4.559 4.9248-6.1764.8687-1.6401 2.185-5.7938 2.6186-8.2643.868-4.9473.311-11.476-1.3202-15.4863-.3859-.9488-.7022-1.828-.7022-1.9535 0-.2767-1.3237-2.3954-1.7322-2.7704-.1609-.1478-.8675-1.0217-1.5698-1.944-.7024-.9224-1.5234-1.8085-1.8227-1.969-.5266-.2828-.9835-.6558-2.6933-2.182-.4451-.3972-1.2494-.9271-1.7853-1.1801-.5358-.253-1.3915-.8064-1.9038-1.2272-.5122-.4207-1.029-.7638-1.1485-.7638-.1195 0-.845-.422-1.6104-.9391-.7655-.5171-1.5574-.9423-1.7603-.9423-.43 0-2.5435-1.1126-2.6747-1.4087-.049-.1108-.2595-.2004-.4681-.2004-.2087 0-.3777-.1214-.3777-.2692 0-.1477-.1978-.2692-.437-.2692-.239 0-1.1124-.3423-1.9411-.7607-4.3832-2.2126-6.6163-3.2862-6.8194-3.2775-.1246.0052-.5551-.2247-.955-.5103-.4-.2856-1.0809-.6054-1.5138-.7106-.4327-.1052-2.0225-.8688-3.5329-1.6967-1.5104-.828-3.2573-1.7682-3.8825-2.088-.6254-.3197-1.4935-.9562-1.9288-1.415-.725-.764-.7927-.995-.7927-2.7484 0-1.837.0356-1.9448.8833-2.6546.4858-.4068 1.264-.794 1.729-.864.4648-.0699 8.799-.0645 18.5202.0125l17.675.141-.05-11.2571-.053-11.254-3.1615-.1847c-1.7434-.1011-10.5178-.2226-19.5015-.2673l.006-.0042zm32.7916.0532l.0905 36.4635c.079 32.447.1356 36.611.515 37.8066.795 2.5046 1.6285 4.5427 2.3937 5.8446.4196.7137.7647 1.4165.7647 1.5621 0 .938 7.0019 8.3082 7.893 8.3082.0974 0 .6834.3326 1.3015.7388 3.0149 1.9817 4.1728 2.5462 7.4499 3.6438 3.596 1.2046 6.8804 2.0017 10.1339 2.4574 3.4843.488 12.068.4932 15.2648.0095 4.6872-.7095 8.1364-1.5883 10.6176-2.708.464-.2094 1.0479-.3819 1.2952-.3819.5334 0 4.8578-2.2714 5.6272-2.9552.2946-.2618.9783-.7011 1.5168-.9767 1.2825-.6562 5.778-4.8401 6.3106-5.8728.2286-.4432.6753-1.068.9925-1.3899.7704-.782 2.6082-4.1713 3.0118-5.5566.178-.6108.6268-2.1983.9988-3.528l.6772-2.42.0096-35.521.0096-35.525-14.0601.0008h-14.06v33.96c0 20.934-.0983 34.2227-.256 34.6378-.331.8731-2.1133 2.8519-2.5686 2.8519-.1933 0-.5136.1614-.7116.36-.9338.9366-3.212 1.3868-7.0409 1.3868h-3.7483l-2.1254-1.0362c-2.2324-1.0835-2.8476-1.6653-3.8431-3.6383l-.6024-1.1927v-67.33H103.112l.007.0005zm85.7063.0032V109.4878l25.2397-.0094c25.6632-.0087 28.1-.0887 31.2624-1.0488.5145-.1561 1.2643-.2848 1.6667-.2848.7086 0 3.2339-1.0237 5.4304-2.2007.5892-.3156 1.7317-.9274 2.5374-1.3586 1.2552-.6718 2.7881-1.9639 5.2059-4.3857.7286-.7298 2.3652-3.0193 3.1927-4.4703.7145-1.2526 2.3335-5.911 2.8744-8.2676.4583-1.9969.6987-7.198.4463-9.67-.193-1.8885-1.3365-6.253-1.7945-6.8493-.1135-.1477-.3603-.752-.5462-1.343-.5075-1.6138-3.704-5.4914-5.9861-7.2595-.5682-.4402-1.3155-1.059-1.6605-1.3774-.345-.3184-1.1136-.794-1.7102-1.058-.5967-.264-1.0862-.5566-1.0862-.648 0-.1656 1.4856-1.343 1.6948-1.343.1998 0 4.4662-4.2255 4.4662-4.4234 0-.1068.2252-.5157.5024-.9079.7918-1.1198 2.3369-4.1422 2.709-5.2997.186-.5787.475-1.2233.6398-1.4307.1994-.2506.2906-2.0964.2778-5.5063-.0184-4.775-.0673-5.2833-.7272-7.366-.8138-2.5681-2.6889-6.4905-3.6703-7.679-1.7263-2.09-3.7614-4.0864-5.287-5.1808-2.1197-1.5206-5.8378-3.3396-8.6358-4.2261-4.3145-1.364-7.2228-1.4932-33.2375-1.4932h-23.8063.002zm27.5839 20.6455l7.5654.0877c8.207.093 8.1455.0831 10.087 1.7217 2.0836 1.7586 2.8984 5.8133 2.0162 10.0487-.3083 1.4805-2.1213 3.9416-3.4113 4.633-1.0814.5797-1.4424.6064-8.692.6887l-7.5653.0877V35.0462zm.1997 35.4425c.1106-.0456 4.0673-.0238 8.792.0501l8.589.1346 1.1267.7482c.6202.412 1.5747 1.4415 2.1192 2.2852l.9894 1.534.0031 3.9162c.0032 3.5856-.0492 4.0304-.6429 5.303-.3565.7644-.8108 1.39-1.0112 1.39-.2003 0-.4318.1725-.5118.3818-.2311.6041-2 1.6485-3.3708 1.991-.809.2021-3.933.313-8.77.313h-7.5123v-8.9812c0-4.9406.0893-9.0201.1997-9.0657v-.0002z" fill="#FFCB08"/><path d="M571.4747 2.2921c-.1924.1055-.2074 1.312-.2122 5.591l-.0064 5.976-10.7768.0063c-10.3705.0051-11.7504.0824-16.3359.9047-3.7894.6796-7.9594 3.1945-10.4771 6.3204-2.0545 2.5506-3.311 5.4095-4.3226 9.8266-.1015.4432-.2628 5.7603-.359 11.8174-.1925 12.1278-.1097 11.54-1.9817 13.8772-1.5174 1.8944-5.2202 3.1776-9.1726 3.1774-1.9323 0-5.306-.7833-6.4543-1.4963-1.4591-.9064-3.092-2.5469-3.4081-3.4247-.2147-.596-.3472-6.7686-.4432-20.5959l-.1373-19.74-13.726-.0688-13.7232-.072.0032 21.0206c.0032 11.5617.115 21.7867.2497 22.7211.2952 2.0476 1.4205 5.8592 2.2752 7.704 1.613 3.4818 5.4015 7.8324 8.8824 10.2053.8668.591 1.815 1.2916 2.1067 1.5558.2917.2643.8336.5499 1.2047.6355.3712.0856 1.1654.436 1.7666.7795 1.254.7166 4.738 2.1468 6.6072 2.711l1.2733.385V109.485h27.8517V82.2126l2.2097-.767c3.2221-1.1177 9.4773-4.2498 11.1608-5.5878 2.1324-1.6953 5.5628-5.2555 6.551-6.7993 1.2217-1.9085 2.957-5.874 3.4673-7.9233.7285-2.9254.972-6.5004.98-14.5033.0048-4.2105.08-7.927.1686-8.258.2616-.9795 1.6518-1.162 8.3143-1.0832l6.1109.072.075 5.8446c.0443 3.5891.1726 5.8413.3339 5.8413.1444 0 .2621-.1215.2621-.2692s.15-.2687.334-.2692c.184-.0005 1.2591-.8478 2.3875-1.8814 1.1284-1.0336 2.1542-1.8783 2.2814-1.8783.1272 0 .9512-.6826 1.8288-1.5151.8777-.8325 2.0195-1.788 2.5374-2.1256.518-.3374 1.663-1.2878 2.5468-2.11.8838-.8221 1.6982-1.4939 1.8072-1.4963.109-.0024.839-.5786 1.6229-1.2803 1.743-1.561 6.8394-5.8074 8.333-6.9433.6013-.4574 1.7553-1.4589 2.5655-2.2258l1.4731-1.3962-1.8383-1.7342c-1.011-.9549-1.9974-1.7374-2.191-1.7374-.1934 0-.571-.275-.8395-.6105-.2684-.3355-1.2104-1.1798-2.0941-1.8783-.8838-.6984-1.8495-1.4956-2.1442-1.7719-.2945-.2762-1.8263-1.5511-3.405-2.833-1.5787-1.282-3.2258-2.6878-3.661-3.1242-.4351-.4365-.8989-.7952-1.0299-.7952s-1.1531-.844-2.2721-1.8783c-1.1186-1.0294-2.1573-1.8767-2.2851-1.8767-.137 0-.9615-.6711-1.832-1.4932-.8706-.822-2.0638-1.805-2.653-2.1819-.5891-.3768-1.281-.943-1.5355-1.2584-.1104-.1369-.1918-.223-.256-.1879l.0012-.0047zM435.639 11.5614c-1.6582-.0267-3.309.0213-4.9187.1471-5.2601.4109-10.4867 1.4918-13.5076 2.7954-.5476.2363-1.2.432-1.4513.432-.5798 0-4.4 1.9625-5.805 2.9833-.5864.426-1.2127.7763-1.389.7763-.1762 0-.7283.3922-1.2296.8734-.5013.4813-1.6667 1.5293-2.5872 2.326-.9206.7967-1.673 1.5641-1.673 1.7062 0 .142-.4629.8173-1.0299 1.5026-1.7298 2.0908-2.3796 3.2742-3.4923 6.3517-2.002 5.536-1.9038 3.3319-1.9038 42.7368v35.2935h27.5804V82.0879h21.1572v27.3978h27.5836V74.3653c-.0008-30.469-.0561-35.4345-.4151-37.494-.639-3.665-2.8397-9.3535-4.1135-10.631-.2724-.2733-.9838-1.218-1.5792-2.0975-.5954-.8794-1.367-1.7861-1.7165-2.016-.3497-.2298-1.2847-1.0349-2.0755-1.7874-.7908-.7526-1.6788-1.4435-1.9725-1.537-.2937-.0936-1.0847-.5664-1.7603-1.0487-1.566-1.1214-4.3145-2.5025-5.8805-2.9612-.671-.1967-2.253-.6775-3.4995-1.0675-4.2825-1.3328-9.332-2.0831-14.3017-2.163l-.0195-.0006zM388.1 14.3913l-13.8667.072-13.8698.0688-.1342 34.1122-.1343 34.1154-.7209 1.2271c-.8953 1.5274-1.0459 1.6488-3.0273 2.3917-3.1624 1.1857-8.367.6125-10.2557-1.13-.363-.335-.8829-1.0933-1.1548-1.6843-.4723-1.026-.493-2.5856-.4993-34.6972-.0032-18.4914-.0791-33.8092-.1686-34.0433-.145-.3797-1.6109-.4257-13.7918-.4257h-13.6294v33.6458c0 20.9981-.0995 33.9888-.2622 34.5578-.685 2.3958-2.8496 3.9145-6.1826 4.3387-2.0058.2553-4.6695-.0439-5.9144-.6668-.4655-.233-.9883-.4226-1.161-.4226-.488 0-1.3436-1.0905-1.9038-2.4199-.4903-1.163-.5125-2.4718-.5774-34.7853-.037-18.4674-.0688-33.7244-.0687-33.9087.0006-.2643-2.9367-.338-13.7918-.338h-13.7916v34.8863c0 38.3644-.0508 36.9892 1.6542 42.2046 1.4668 4.4872 3.3516 7.4881 6.8163 10.8439 1.1602 1.1237 2.1927 2.0451 2.2938 2.0472.1012.0023.9601.5373 1.91 1.1896 2.312 1.5878 2.7893 1.8176 6.1423 2.952 3.3904 1.1473 5.6481 1.707 8.7668 2.1756h.0032c3.2613.4903 10.6026.488 13.4016-.0032 3.3523-.5882 9.0657-2.418 10.936-3.5029.498-.2888 1.4607-.9092 2.141-1.3805 2.4605-1.7044 3.1753-2.01 3.845-1.634.333.1869.666.4146.7397.504.3283.3983 5.291 3.2248 5.8924 3.3559.3683.0802.9707.273 1.339.4289 1.4466.6126 4.528 1.534 6.6944 2.0035 3.2289.6997 12.7257.7059 16.2017.0094 2.556-.5123 5.6318-1.3592 6.963-1.9158.4418-.1848 1.2865-.4872 1.8756-.673.5891-.1859 1.4913-.609 2.0067-.9392.5154-.3301 1.7776-1.1327 2.8027-1.7844 1.0251-.6516 2.7305-2.0306 3.7889-3.0647 2.1494-2.1 4.9233-5.6424 4.928-6.2922.0017-.233.3052-.9553.6742-1.6028.7826-1.3731 1.7918-4.2136 2.4437-6.8808.42-1.7191.4668-4.9443.5525-37.4059L388.1 14.393v-.0017zm45.4569 21.003c.7015-.0267 1.4682-.0229 2.3251.0094 2.6429.0993 3.1542.2032 4.9563 1.0174 2.6409 1.1931 3.0415 1.5902 3.8606 3.8066l.6898 1.8689V60.0622h-21.1729l.0749-9.4696.078-9.4664.7178-1.487c.855-1.7702 1.2143-2.1095 3.2365-3.0521 1.6123-.7516 3.1293-1.1128 5.234-1.1927l-.0001-.0002z" stroke="#009743" stroke-width="1.5873" fill="#009743"/></g></svg>